<?xml version="1.0" encoding="UTF-8"?>
<svg width="400px" height="400px" viewBox="0 0 400 400" version="1.1" xmlns="http://www.w3.org/2000/svg" xmlns:xlink="http://www.w3.org/1999/xlink">
    <!-- Generator: Sketch 42 (36781) - http://www.bohemiancoding.com/sketch -->
    <title>reading_man</title>
    <desc>Created with Sketch.</desc>
    <defs></defs>
    <g id="Page-1" stroke="none" stroke-width="1" fill="none" fill-rule="evenodd">
        <g id="reading_man">
            <polygon id="Fill-1" fill="#241D24" points="0.06 400 400 400 400 0.04 0.06 0.04"></polygon>
            <path d="M261,33 L261,33 C246.092,33 233.463,43.985 231.397,58.749 L225.263,102.582 L261,100 L296.737,102.582 L290.603,58.749 C288.537,43.985 275.908,33 261,33" id="Fill-3" fill="#FCE6C4"></path>
            <path d="M261,113.804 C243.788,113.804 225.263,110.292 225.263,102.582 C225.263,94.872 243.788,91.36 261,91.36 C278.212,91.36 296.737,94.872 296.737,102.582 C296.737,110.292 278.212,113.804 261,113.804" id="Fill-4" fill="#FCE6C4"></path>
            <path d="M292.41,102 L359.078,284.263 C375.553,329.301 342.21,377 294.253,377 L221.929,377 C173.102,377 139.711,327.691 157.835,282.353 L229.93,102 L292.41,102 Z" id="Fill-5" fill="#F8C669"></path>
            <path d="M261,109.804 C240.465,109.804 229.263,105.033 229.263,102.582 C229.263,100.13 240.465,95.36 261,95.36 C281.535,95.36 292.737,100.13 292.737,102.582 C292.737,105.033 281.535,109.804 261,109.804" id="Fill-6" fill="#F2AD52"></path>
            <path d="M265,95.426 L265,377 L257,377 L257,95.426 C258.29,95.382 259.62,95.36 261,95.36 C262.38,95.36 263.71,95.382 265,95.426" id="Fill-7" fill="#442C39"></path>
            <g id="handlecont" transform="translate(242.000000, 99.000000)">
                <g id="handle">
                    <path d="M5,2 C5,3.105 4.105,4 3,4 C1.895,4 1,3.105 1,2 C1,0.895 1.895,0 3,0 C4.105,0 5,0.895 5,2" id="Fill-8" fill="#FCE6C4"></path>
                    <path d="M5,8 C5,9.105 4.105,10 3,10 C1.895,10 1,9.105 1,8 C1,6.895 1.895,6 3,6 C4.105,6 5,6.895 5,8" id="Fill-9" fill="#FCE6C4"></path>
                    <path d="M5,14 C5,15.105 4.105,16 3,16 C1.895,16 1,15.105 1,14 C1,12.895 1.895,12 3,12 C4.105,12 5,12.895 5,14" id="Fill-10" fill="#FCE6C4"></path>
                    <path d="M5,20 C5,21.105 4.105,22 3,22 C1.895,22 1,21.105 1,20 C1,18.895 1.895,18 3,18 C4.105,18 5,18.895 5,20" id="Fill-11" fill="#FCE6C4"></path>
                    <path d="M5,26 C5,27.105 4.105,28 3,28 C1.895,28 1,27.105 1,26 C1,24.895 1.895,24 3,24 C4.105,24 5,24.895 5,26" id="Fill-12" fill="#FCE6C4"></path>
                    <path d="M5,32 C5,33.105 4.105,34 3,34 C1.895,34 1,33.105 1,32 C1,30.895 1.895,30 3,30 C4.105,30 5,30.895 5,32" id="Fill-13" fill="#FCE6C4"></path>
                    <path d="M0,49 L0,39 C0,37.343 1.343,36 3,36 C4.657,36 6,37.343 6,39 L6,49 C6,50.657 4.657,52 3,52 C1.343,52 0,50.657 0,49 Z" id="Fill-14" fill="#442C39"></path>
                </g>
            </g>
            <path d="M53,121 L50,121 C47.791,121 46,119.209 46,117 L46,79 C46,76.791 47.791,75 50,75 L53,75 C55.209,75 57,76.791 57,79 L57,117 C57,119.209 55.209,121 53,121" id="Fill-15" fill="#442C39"></path>
            <path d="M88,121 L85,121 C82.791,121 81,119.209 81,117 L81,79 C81,76.791 82.791,75 85,75 L88,75 C90.209,75 92,76.791 92,79 L92,117 C92,119.209 90.209,121 88,121" id="Fill-16" fill="#442C39"></path>
            <path d="M39,121 L39,121 C37.343,121 36,119.657 36,118 L36,78 C36,76.343 37.343,75 39,75 C40.657,75 42,76.343 42,78 L42,118 C42,119.657 40.657,121 39,121" id="Fill-17" fill="#442C39"></path>
            <path d="M64,121 L64,121 C62.343,121 61,119.657 61,118 L61,78 C61,76.343 62.343,75 64,75 C65.657,75 67,76.343 67,78 L67,118 C67,119.657 65.657,121 64,121" id="Fill-18" fill="#442C39"></path>
            <path d="M74,121 L74,121 C72.343,121 71,119.657 71,118 L71,78 C71,76.343 72.343,75 74,75 C75.657,75 77,76.343 77,78 L77,118 C77,119.657 75.657,121 74,121" id="Fill-19" fill="#442C39"></path>
            <path d="M43,69 L40,69 C37.791,69 36,67.209 36,65 L36,27 C36,24.791 37.791,23 40,23 L43,23 C45.209,23 47,24.791 47,27 L47,65 C47,67.209 45.209,69 43,69" id="Fill-20" fill="#442C39"></path>
            <path d="M68,69 L65,69 C62.791,69 61,67.209 61,65 L61,27 C61,24.791 62.791,23 65,23 L68,23 C70.209,23 72,24.791 72,27 L72,65 C72,67.209 70.209,69 68,69" id="Fill-21" fill="#442C39"></path>
            <path d="M54,69 L54,69 C52.343,69 51,67.657 51,66 L51,26 C51,24.343 52.343,23 54,23 C55.657,23 57,24.343 57,26 L57,66 C57,67.657 55.657,69 54,69" id="Fill-22" fill="#442C39"></path>
            <path d="M79,69 L79,69 C77.343,69 76,67.657 76,66 L76,26 C76,24.343 77.343,23 79,23 C80.657,23 82,24.343 82,26 L82,66 C82,67.657 80.657,69 79,69" id="Fill-23" fill="#442C39"></path>
            <path d="M98.377,23.938 L98.377,23.938 C99.998,23.594 101.591,24.628 101.935,26.249 L110.246,65.376 C110.591,66.997 109.556,68.59 107.935,68.934 C106.314,69.278 104.722,68.243 104.377,66.623 L96.066,27.496 C95.722,25.875 96.757,24.282 98.377,23.938" id="Fill-24" fill="#442C39"></path>
            <path d="M108.886,26.216 L108.886,26.216 C110.425,25.6 112.171,26.348 112.786,27.886 L127.647,65.023 C128.262,66.561 127.514,68.308 125.976,68.923 C124.438,69.539 122.692,68.791 122.076,67.252 L107.216,30.115 C106.6,28.577 107.348,26.831 108.886,26.216" id="Fill-25" fill="#442C39"></path>
            <path d="M89,69 L89,69 C87.343,69 86,67.657 86,66 L86,30 C86,28.343 87.343,27 89,27 C90.657,27 92,28.343 92,30 L92,66 C92,67.657 90.657,69 89,69" id="Fill-26" fill="#442C39"></path>
            <path d="M354,210 L354,248 C354,250.21 352.21,252 350,252 L347,252 C344.79,252 343,250.21 343,248 L343,210 C343,207.79 344.79,206 347,206 L350,206 C352.21,206 354,207.79 354,210" id="Fill-27" fill="#442C39"></path>
            <path d="M319,210 L319,248 C319,250.21 317.21,252 315,252 L312,252 C309.79,252 308,250.21 308,248 L308,210 C308,207.79 309.79,206 312,206 L315,206 C317.21,206 319,207.79 319,210" id="Fill-28" fill="#442C39"></path>
            <path d="M361,252 L361,252 C362.657,252 364,250.657 364,249 L364,209 C364,207.343 362.657,206 361,206 C359.343,206 358,207.343 358,209 L358,249 C358,250.657 359.343,252 361,252" id="Fill-29" fill="#442C39"></path>
            <path d="M339,209 L339,249 C339,250.66 337.66,252 336,252 C334.34,252 333,250.66 333,249 L333,209 C333,208.17 333.34,207.42 333.88,206.88 C334.42,206.34 335.17,206 336,206 C337.66,206 339,207.34 339,209" id="Fill-30" fill="#442C39"></path>
            <path d="M329,209 L329,249 C329,250.66 327.66,252 326,252 C324.34,252 323,250.66 323,249 L323,209 C323,208.17 323.34,207.42 323.88,206.88 C324.42,206.34 325.17,206 326,206 C327.66,206 329,207.34 329,209" id="Fill-31" fill="#442C39"></path>
            <path d="M357,200 L360,200 C362.209,200 364,198.209 364,196 L364,158 C364,155.791 362.209,154 360,154 L357,154 C354.791,154 353,155.791 353,158 L353,196 C353,198.209 354.791,200 357,200" id="Fill-32" fill="#442C39"></path>
            <path d="M332,200 L335,200 C337.209,200 339,198.209 339,196 L339,158 C339,155.791 337.209,154 335,154 L332,154 C329.791,154 328,155.791 328,158 L328,196 C328,198.209 329.791,200 332,200" id="Fill-33" fill="#442C39"></path>
            <path d="M346,200 L346,200 C347.657,200 349,198.657 349,197 L349,157 C349,155.343 347.657,154 346,154 C344.343,154 343,155.343 343,157 L343,197 C343,198.657 344.343,200 346,200" id="Fill-34" fill="#442C39"></path>
            <path d="M324,157 L324,197 C324,198.66 322.66,200 321,200 C319.34,200 318,198.66 318,197 L318,157 C318,156.17 318.34,155.42 318.88,154.88 C319.42,154.34 320.17,154 321,154 C322.66,154 324,155.34 324,157" id="Fill-35" fill="#442C39"></path>
            <path d="M314,169 L314,197 C314,198.66 312.66,200 311,200 C309.34,200 308,198.66 308,197 L308,169 C308,168.17 308.34,167.42 308.88,166.88 C309.42,166.34 310.17,166 311,166 C311.92,166 312.74,166.41 313.28,167.06 C313.73,167.58 314,168.26 314,169" id="Fill-36" fill="#3C965C"></path>
            <path d="M319,210 L319,248 C319,250.21 317.21,252 315,252 L312,252 C309.79,252 308,250.21 308,248 L308,210 C308,207.79 309.79,206 312,206 L315,206 C317.21,206 319,207.79 319,210" id="Fill-37" fill="#FCE6C4"></path>
            <path d="M321,200 C319.34,200 318,198.66 318,197 L318,171.96 L324,188.36 L324,197 C324,198.66 322.66,200 321,200" id="Fill-38" fill="#3D5163"></path>
            <path d="M329,209 L329,249 C329,250.66 327.66,252 326,252 C324.34,252 323,250.66 323,249 L323,209 C323,208.17 323.34,207.42 323.88,206.88 C324.42,206.34 325.17,206 326,206 C327.66,206 329,207.34 329,209" id="Fill-39" fill="#E88266"></path>
            <path d="M333,212.96 L339,229.37 L339,249 C339,250.66 337.66,252 336,252 C334.34,252 333,250.66 333,249 L333,212.96" id="Fill-40" fill="#3D5163"></path>
            <path d="M347.28,252 L347,252 C344.79,252 343,250.21 343,248 L343,240.3 L347.28,252" id="Fill-41" fill="#FCE6C4"></path>
            <path d="M291.161,372.737 L265,369 L257,369 L230.839,372.737 C229.784,372.888 229,373.792 229,374.858 C229,376.041 229.959,377 231.142,377 L290.858,377 C292.041,377 293,376.041 293,374.858 C293,373.792 292.216,372.888 291.161,372.737" id="Fill-42" fill="#442C39"></path>
            <path d="M130.46,197 L126.45,197 L123.64,144.32 C123.28,137.97 118.02,133 111.66,133 L62.7,133 C55.8,133 50.33,138.8 50.72,145.68 L53.246,192.996 C53.362,195.172 51.629,197 49.45,197 L46.72,145.89 C46.472,141.505 47.995,137.308 50.997,134.088 C54.105,130.753 58.557,129 63.115,129 L111.66,129 C120.14,129 127.16,135.63 127.63,144.1 L130.46,197" id="Fill-43" fill="#BD4A50"></path>
            <path d="M242,377 L242,377 C243.134,377 244.082,376.138 244.19,375.009 L246,356 L238,356 L239.81,375.009 C239.918,376.138 240.866,377 242,377" id="Fill-44" fill="#442C39"></path>
            <path d="M186,377 L186,377 C187.134,377 188.082,376.138 188.19,375.009 L190,356 L182,356 L183.81,375.009 C183.918,376.138 184.866,377 186,377" id="Fill-45" fill="#442C39"></path>
            <path d="M139,377 L139,377 C140.134,377 141.082,376.138 141.19,375.009 L143,356 L135,356 L136.81,375.009 C136.918,376.138 137.866,377 139,377" id="Fill-46" fill="#442C39"></path>
            <path d="M84,377 L84,377 C85.134,377 86.082,376.138 86.19,375.009 L88,356 L80,356 L81.81,375.009 C81.918,376.138 82.866,377 84,377" id="Fill-47" fill="#442C39"></path>
            <path d="M216,357 L251,357 C257.627,357 263,351.627 263,345 L263,241 C263,234.373 257.627,229 251,229 L216,229 C209.373,229 204,234.373 204,241 L204,345 C204,351.627 209.373,357 216,357" id="Fill-48" fill="#442C39"></path>
            <path d="M194,357 L246,357 C252.627,357 258,351.627 258,345 L258,241 C258,234.373 252.627,229 246,229 L197,229 C190.373,229 185,234.373 185,241 L194,357" id="Fill-49" fill="#FCDFCE"></path>
            <path d="M191,357 L226,357 C232.627,357 238,351.627 238,345 L238,241 C238,234.373 232.627,229 226,229 L191,229 C184.373,229 179,234.373 179,241 L179,345 C179,351.627 184.373,357 191,357" id="Fill-50" fill="#442C39"></path>
            <path d="M248,348 L248,348 C244.686,348 242,345.314 242,342 L242,244 C242,240.686 244.686,238 248,238 C251.314,238 254,240.686 254,244 L254,342 C254,345.314 251.314,348 248,348" id="Fill-51" fill="#C8AD9D"></path>
            <path d="M242,249 L243,249 C244.654,249 246,247.654 246,246 L246,238 L242,238 L242,249 Z M243,253 L239,253 L239,234 L250,234 L250,246 C250,249.859 246.86,253 243,253 L243,253 Z" id="Fill-52" fill="#FCDFCE"></path>
            <path d="M254,294 L254,297 L253,297 C251.35,297 250,295.65 250,294 L250,269 C250,267.895 249.105,267 248,267 C246.895,267 246,267.895 246,269 L246,294 C246,297.866 249.134,301 253,301 L257,301 L257,294 L254,294" id="Fill-53" fill="#FCDFCE"></path>
            <path d="M242,317 L242,314 L243,314 C244.65,314 246,315.35 246,317 L246,342 C246,343.105 246.895,344 248,344 C249.105,344 250,343.105 250,342 L250,317 C250,313.134 246.866,310 243,310 L239,310 L239,317 L242,317" id="Fill-54" fill="#FCDFCE"></path>
            <path d="M244,306 L241,306 C239.895,306 239,305.105 239,304 C239,302.895 239.895,302 241,302 L244,302 C245.105,302 246,302.895 246,304 C246,305.105 245.105,306 244,306" id="Fill-55" fill="#FCDFCE"></path>
            <path d="M242,298 L241,298 C239.895,298 239,297.105 239,296 C239,294.895 239.895,294 241,294 L242,294 C243.105,294 244,294.895 244,296 C244,297.105 243.105,298 242,298" id="Fill-56" fill="#FCDFCE"></path>
            <path d="M255,264 L252,264 C250.895,264 250,263.105 250,262 C250,260.895 250.895,260 252,260 L255,260 C256.105,260 257,260.895 257,262 C257,263.105 256.105,264 255,264" id="Fill-57" fill="#FCDFCE"></path>
            <path d="M255,256 L254,256 C252.895,256 252,255.105 252,254 C252,252.895 252.895,252 254,252 L255,252 C256.105,252 257,252.895 257,254 C257,255.105 256.105,256 255,256" id="Fill-58" fill="#FCDFCE"></path>
            <path d="M75.476,357 L135,357 L123.641,144.322 C123.281,137.968 118.024,133 111.66,133 L62.699,133 C55.805,133 50.328,138.795 50.718,145.678 L61.282,343.543 C61.684,351.088 67.92,357 75.476,357" id="Fill-59" fill="#442C39"></path>
            <path d="M79.302,345 L152.302,345 L140.943,144.322 C140.583,137.968 135.326,133 128.962,133 L80,133 C73.106,133 67.63,138.795 68.02,145.678 L79.302,345" id="Fill-60" fill="#904D45"></path>
            <path d="M86,357 L121,357 C127.627,357 133,351.627 133,345 L133,196 C133,189.373 127.627,184 121,184 L86,184 C79.373,184 74,189.373 74,196 L74,345 C74,351.627 79.373,357 86,357" id="Fill-61" fill="#904D45"></path>
            <path d="M83,345 L156,345 L144.641,144.322 C144.281,137.968 139.024,133 132.66,133 L83.699,133 C76.805,133 71.328,138.795 71.718,145.678 L83,345" id="Fill-62" fill="#904D45"></path>
            <path d="M81,208 C78.185,208 75.37,206.926 73.222,204.778 C68.926,200.482 68.926,193.518 73.222,189.222 L127.222,135.222 C131.518,130.926 138.483,130.926 142.778,135.222 C147.074,139.518 147.074,146.482 142.778,150.778 L88.778,204.778 C86.631,206.926 83.815,208 81,208" id="Fill-63" fill="#442C39"></path>
            <path d="M136,197 L136,197 C136,203.075 131.075,208 125,208 L81,208 C74.925,208 70,203.075 70,197 C70,190.925 74.925,186 81,186 L125,186 C131.075,186 136,190.925 136,197" id="Fill-64" fill="#442C39"></path>
            <polyline id="Fill-65" fill="#442C39" points="129 251 94 251 114 135 129 135 129 251"></polyline>
            <path d="M72,135 L78.467,135 C81.079,135 83.485,136.416 84.752,138.699 L126,213 L126,131 L72,131 L72,135" id="Fill-66" fill="#442C39"></path>
            <path d="M62,133 L79.467,133 C82.079,133 84.485,134.416 85.752,136.699 L127,211 L127,129 L62,129 L62,133" id="Fill-67" fill="#B7484D"></path>
            <path d="M127.53,129 L127.53,203.4 L88.28,132.7 C87.01,130.42 84.61,129 82,129 L127.53,129" id="Fill-68" fill="#7B313A"></path>
            <polygon id="Fill-69" fill="#442C39" points="102 357 198 357 198 285 102 285"></polygon>
            <path d="M210,285 L141,285 C134.373,285 129,279.627 129,273 L129,263 C129,256.373 134.373,251 141,251 L210,251 C216.627,251 222,256.373 222,263 L222,273 C222,279.627 216.627,285 210,285" id="Fill-70" fill="#904D45"></path>
            <path d="M210,357 L141,357 C134.373,357 129,351.627 129,345 L129,304 C129,297.373 134.373,292 141,292 L210,292 C216.627,292 222,297.373 222,304 L222,345 C222,351.627 216.627,357 210,357" id="Fill-71" fill="#904D45"></path>
            <polyline id="Fill-72" fill="#442C39" points="197.42 292 168.66 357 143.35 357 147.89 349.55 173.36 292 197.42 292"></polyline>
            <path d="M209.708,264.237 L200.52,285 L176.46,285 L190.62,253 L202.392,253 C208.175,253 212.048,258.948 209.708,264.237" id="Fill-73" fill="#442C39"></path>
            <path d="M246,251 L141,251 C128.85,251 119,241.15 119,229 L246,229 C252.075,229 257,233.925 257,240 C257,246.075 252.075,251 246,251" id="Fill-74" fill="#442C39"></path>
            <polyline id="Fill-75" fill="#C99D75" points="154 235 119 233 119 227 154 227 154 235"></polyline>
            <polygon id="Fill-76" fill="#F5BF8B" points="148 145 170 145 170 98 148 98"></polygon>
            <polygon id="Fill-77" fill="#FCE6C4" points="164 145 170 145 170 117 164 117"></polygon>
            <path d="M250,216.604 C252.815,216.604 255.63,215.53 257.778,213.383 C262.074,209.087 262.074,202.122 257.778,197.826 L203.778,143.826 C199.482,139.53 192.517,139.53 188.222,143.826 C183.926,148.122 183.926,155.087 188.222,159.383 L242.222,213.383 C244.37,215.53 247.185,216.604 250,216.604" id="Fill-78" fill="#409BA4"></path>
            <path d="M258.881,212.096 C257.855,213.494 256.614,214.518 255.26,215.27 C259.06,210.95 258.9,204.35 254.78,200.22 L203.56,149 C202.815,148.255 202.816,147.046 203.562,146.302 C204.307,145.561 205.512,145.562 206.255,146.305 L257.534,197.584 C261.417,201.467 262.129,207.67 258.881,212.096" id="Fill-79" fill="#6ABFAD"></path>
            <path d="M260.432,210.443 L260.432,210.443 C258.5,216.203 252.265,219.306 246.505,217.374 L229.818,211.778 C224.058,209.846 220.955,203.611 222.887,197.851 C224.819,192.091 231.054,188.988 236.814,190.919 L253.501,196.516 C259.26,198.448 262.364,204.683 260.432,210.443" id="Fill-80" fill="#6ABFAD"></path>
            <path d="M260.588,210.349 C258.655,216.113 252.426,219.214 246.661,217.28 L221.588,209 C215.823,207.066 212.723,200.837 214.656,195.073 C215.292,193.177 216.393,191.563 217.799,190.326 C218.554,194.049 221.217,197.273 225.085,198.571 L250.159,206.851 C254.027,208.149 258.096,207.182 260.943,204.667 C261.319,206.502 261.224,208.453 260.588,210.349" id="Fill-81" fill="#409BA4"></path>
            <polyline id="Fill-82" fill="#F5BF8B" points="215.141 207.234 238.4 214.598 245.438 193.754 219.856 185.117 215.141 207.234"></polyline>
            <polyline id="Fill-83" fill="#F5BF8B" points="215.141 207.234 238.4 214.598 245.438 193.754 219.856 185.117 215.141 207.234"></polyline>
            <path d="M215.243,172.456 L215.243,172.456 C220.999,174.399 224.089,180.641 222.146,186.397 L215.109,207.241 C203.597,203.354 197.415,190.871 201.302,179.359 C203.245,173.603 209.487,170.513 215.243,172.456" id="Fill-84" fill="#F7C797"></path>
            <polyline id="Fill-85" fill="#409BA4" points="119 121 199 141 199 229 119 229 119 121"></polyline>
            <path d="M135,148 L143.25,139.375 C143.25,139.375 145,145.875 152.25,145.875 L135,148" id="Fill-86" fill="#6ABFAD"></path>
            <path d="M172.08,221.42 L171.54,221.94 C169.02,222.03 167.11,222.83 165.73,224.36 C164.42,225.83 163.7,227.87 163.33,229.85 C163.29,225.25 159.49,223.55 159.19,223.43 C159.73,222.36 160.41,221.33 161.24,220.39 C161.52,220.08 161.8,219.78 162.1,219.51 L172.08,221.42" id="Fill-87" fill="#F7C797"></path>
            <path d="M140.219,143.625 L144.568,144.673 C149.731,145.916 155.099,146.155 160.359,145.376 L163.846,144.859 C164.99,144.689 166.157,144.714 167.292,144.933 L167.762,145.024 C172.389,145.915 175.719,149.829 175.719,154.375 L140.219,143.625" id="Fill-88" fill="#6ABFAD"></path>
            <path d="M140,143 L135,148 L176,157 C176,153.494 173.565,150.459 170.143,149.698 L140,143" id="Fill-89" fill="#FFFFFF"></path>
            <path d="M211,143 L216,148 L175,157 C175,153.494 177.435,150.459 180.857,149.698 L211,143" id="Fill-90" fill="#FFFFFF"></path>
            <path d="M178,213 L218.059,204.616 C219.772,204.257 221,202.746 221,200.995 L221,151.553 C221,149.206 218.841,147.452 216.543,147.933 L178,156 L178,213" id="Fill-91" fill="#3D5163"></path>
            <path d="M222,179 L217,179 C215.343,179 214,177.657 214,176 C214,174.343 215.343,173 217,173 L222,173 C223.657,173 225,174.343 225,176 C225,177.657 223.657,179 222,179" id="Fill-92" fill="#F5BF8B"></path>
            <path d="M222,185 L218,185 C216.343,185 215,183.657 215,182 C215,180.343 216.343,179 218,179 L222,179 C223.657,179 225,180.343 225,182 C225,183.657 223.657,185 222,185" id="Fill-93" fill="#F5BF8B"></path>
            <path d="M236,205.5 C236,219.58 223.24,231 207.5,231 C197.78,231 189.2,226.64 184.06,220 C181,224.22 175.84,227 170,227 C160.61,227 153,219.84 153,211 C153,202.16 160.61,195 170,195 C170.38,195 170.76,195.01 171.14,195.04 C176.5,195.37 181.73,193.47 185.33,189.48 C190.55,183.7 198.54,180 207.5,180 C212.89,180 217.93,181.34 222.22,183.66 C224.68,184.99 226.89,186.64 228.78,188.55 C233.28,193.05 236,198.99 236,205.5" id="Fill-94" fill="#FCE6C4"></path>
            <path d="M222,191 L221,191 C219.343,191 218,189.657 218,188 C218,186.343 219.343,185 221,185 L222,185 C223.657,185 225,186.343 225,188 C225,189.657 223.657,191 222,191" id="Fill-95" fill="#F7C797"></path>
            <polygon id="Fill-96" fill="#24384C" points="173 215 178 215 178 156 173 156"></polygon>
            <path d="M178,155 L178,156.5 C178,157.875 176.875,159 175.5,159 C174.125,159 173,157.875 173,156.5 L173,155 L178,155" id="Fill-97" fill="#FFFFFF"></path>
            <path d="M132.121,165.788 L126.464,171.445 C125.293,172.616 123.393,172.616 122.222,171.445 C121.05,170.273 121.05,168.374 122.222,167.202 L127.879,161.545 C129.05,160.374 130.95,160.374 132.121,161.545 C133.293,162.717 133.293,164.616 132.121,165.788" id="Fill-98" fill="#F5BF8B"></path>
            <path d="M173,213 L132.941,204.616 C131.228,204.257 130,202.746 130,200.995 L130,151.553 C130,149.206 132.159,147.452 134.457,147.933 L173,156 L173,213" id="Fill-99" fill="#3D5163"></path>
            <path d="M159.488,193.206 L153.563,206.75 L166.563,201.75 C166.563,201.75 166.037,196.316 162.784,192.641 C161.831,191.564 160.064,191.889 159.488,193.206" id="Fill-100" fill="#F7C797"></path>
            <path d="M176.926,190.456 L175.099,194.632 C173.579,198.106 177.004,201.691 180.544,200.329 C182.688,199.505 183.804,197.133 183.054,194.962 C182.488,193.32 181.599,191.448 180.221,189.891 C179.268,188.814 177.502,189.139 176.926,190.456" id="Fill-101" fill="#FCE6C4"></path>
            <path d="M186.557,161.737 L211.631,156.493 C212.847,156.239 213.989,157.167 213.989,158.409 C213.989,159.336 213.339,160.136 212.432,160.326 L187.358,165.569 C186.142,165.824 185,164.895 185,163.653 C185,162.726 185.65,161.927 186.557,161.737" id="Fill-102" fill="#F2AD52"></path>
            <path d="M209,167.449 L209,167.449 C209,168.353 208.366,169.132 207.482,169.317 L192.299,172.49 C191.114,172.737 190,171.832 190,170.621 C190,169.717 190.634,168.938 191.518,168.753 L206.701,165.58 C207.886,165.333 209,166.238 209,167.449" id="Fill-103" fill="#F2AD52"></path>
            <path d="M64,197 C61.185,197 58.37,195.926 56.222,193.778 C51.926,189.482 51.926,182.518 56.222,178.222 L110.222,124.222 C114.518,119.926 121.482,119.926 125.778,124.222 C130.074,128.518 130.074,135.482 125.778,139.778 L71.778,193.778 C69.63,195.926 66.815,197 64,197" id="Fill-104" fill="#6ABFAD"></path>
            <path d="M119,186 L119,186 C119,192.075 114.075,197 108,197 L64,197 C57.925,197 53,192.075 53,186 C53,179.925 57.925,175 64,175 L108,175 C114.075,175 119,179.925 119,186" id="Fill-105" fill="#6ABFAD"></path>
            <path d="M108,197 L64,197 C57.92,197 53,192.08 53,186 C53,184 53.53,182.12 54.47,180.5 C56.37,183.79 59.92,186 64,186 L108,186 C112.08,186 115.63,183.79 117.53,180.5 C118.47,182.12 119,184 119,186 C119,192.08 114.08,197 108,197 Z" id="Fill-106" fill="#409BA4"></path>
            <path d="M130,164 L130,164 C123.925,164 119,168.925 119,175 L119,197 C131.15,197 141,187.15 141,175 C141,168.925 136.075,164 130,164" id="Fill-107" fill="#F5BF8B"></path>
            <polyline id="Fill-108" fill="#F5BF8B" points="119 197 96 197 96 175 123 175 119 197"></polyline>
            <path d="M203.609,80.631 L192.319,90.929 L187.348,76.48 C185.827,72.06 187.633,67.213 191.68,64.849 C196.416,62.083 202.551,63.649 205.382,68.347 L205.382,68.348 C207.8,72.362 207.061,77.482 203.609,80.631" id="Fill-109" fill="#442C39"></path>
            <path d="M203.609,80.631 L203.609,80.631 C198.273,85.498 189.697,83.309 187.348,76.48 C185.827,72.06 187.633,67.213 191.68,64.849 C196.435,62.072 202.54,63.63 205.382,68.347 L205.382,68.348 C207.8,72.362 207.061,77.482 203.609,80.631" id="Fill-110" fill="#7F3F4D"></path>
            <path d="M206.8,73.42 L206.8,73.489 C206.769,77.871 201.38,80.074 198.172,77.087 C197.024,76.018 196.103,74.648 195.54,73.01 C195.18,71.96 195,70.88 195,69.82 C195,67.5 195.83,65.25 197.35,63.49 C200.55,63.68 203.6,65.39 205.38,68.35 C206.33,69.93 206.8,71.68 206.8,73.42" id="Fill-111" fill="#A94958"></path>
            <path d="M163.809,117.708 L163.809,117.708 C152.571,114.839 145.787,103.404 148.656,92.166 L154.346,69.881 C157.214,58.644 168.65,51.86 179.888,54.729 C191.125,57.598 197.909,69.033 195.04,80.271 L189.351,102.556 C186.482,113.793 175.046,120.577 163.809,117.708" id="Fill-112" fill="#F5BF8B"></path>
            <path d="M192.566,73.933 C194.466,74.616 195.637,76.536 195.359,78.536 C195.271,79.173 195.165,79.788 195.04,80.27 L189.35,102.56 C186.48,113.79 175.05,120.58 163.81,117.71 C163.109,117.53 162.374,117.318 161.638,117.074 C160.665,116.753 160.837,115.314 161.86,115.247 C170.674,114.668 178.501,108.512 180.81,99.49 L186.5,77.2 L186.513,77.147 C187.188,74.5 189.995,73.009 192.566,73.933" id="Fill-113" fill="#FCE6C4"></path>
            <g id="lefteyecont" transform="translate(163.000000, 79.000000)" fill="#442C39">
                <path d="M2.416,8.157 L2.416,8.157 C1.346,7.883 0.7,6.794 0.973,5.724 L1.963,1.848 C2.236,0.778 3.325,0.132 4.395,0.405 C5.465,0.678 6.111,1.768 5.838,2.838 L4.849,6.714 C4.575,7.784 3.486,8.43 2.416,8.157" id="lefteye"></path>
            </g>
            <g id="righteyecont" transform="translate(179.000000, 83.000000)" fill="#442C39">
                <path d="M1.919,8.115 L1.919,8.115 C0.849,7.841 0.203,6.752 0.476,5.682 L1.465,1.806 C1.738,0.736 2.828,0.09 3.898,0.363 C4.968,0.636 5.614,1.725 5.341,2.796 L4.351,6.671 C4.078,7.742 2.989,8.388 1.919,8.115" id="righteye"></path>
            </g>
            <path d="M176.505,100.31 C176.203,100.232 175.914,100.083 175.666,99.86 C170.197,94.953 171.634,87.148 171.698,86.818 C171.908,85.733 172.957,85.025 174.042,85.235 C175.108,85.434 175.832,86.49 175.626,87.572 C175.611,87.655 174.581,93.512 178.337,96.883 C179.159,97.621 179.228,98.885 178.49,99.707 C177.975,100.281 177.203,100.488 176.505,100.31" id="Fill-116" fill="#D9675A"></path>
            <path d="M163.21,91.754 C162.801,93.359 161.167,94.328 159.561,93.918 C157.956,93.509 156.987,91.875 157.397,90.27 C157.807,88.664 159.44,87.695 161.046,88.105 C162.651,88.515 163.62,90.148 163.21,91.754" id="Fill-117" fill="#D9675A"></path>
            <path d="M180.651,96.206 C180.241,97.812 181.21,99.445 182.816,99.855 C184.421,100.265 186.055,99.296 186.464,97.691 C186.874,96.085 185.905,94.452 184.3,94.042 C182.694,93.632 181.061,94.601 180.651,96.206" id="Fill-118" fill="#D9675A"></path>
            <path d="M162.914,70.242 L151.624,80.539 L146.653,66.09 C145.133,61.671 146.938,56.823 150.985,54.46 C155.722,51.693 161.856,53.259 164.687,57.958 C167.106,61.972 166.367,67.092 162.914,70.242" id="Fill-119" fill="#442C39"></path>
            <path d="M162.914,70.242 L162.914,70.242 C157.578,75.109 149.003,72.919 146.653,66.09 C145.133,61.671 146.938,56.823 150.985,54.46 C155.74,51.682 161.845,53.241 164.687,57.958 C167.106,61.972 166.367,67.092 162.914,70.242" id="Fill-120" fill="#7F3F4D"></path>
            <path d="M166.014,64.604 L166.014,64.604 C160.685,63.243 157.438,57.77 158.798,52.441 C160.159,47.112 165.632,43.865 170.961,45.225 C176.29,46.586 179.537,52.059 178.177,57.388 C176.816,62.717 171.343,65.964 166.014,64.604" id="Fill-121" fill="#7F3F4D"></path>
            <path d="M170.961,45.225 L166.014,64.604 L193.143,71.53 C198.495,72.896 203.94,69.665 205.306,64.314 C206.673,58.963 203.442,53.518 198.091,52.151 L170.961,45.225" id="Fill-122" fill="#7F3F4D"></path>
            <path d="M208.234,60.933 C206.321,68.425 200.433,73.391 195.081,72.025 C189.73,70.658 186.943,63.478 188.855,55.986 C190.768,48.494 196.656,43.529 202.008,44.895 C207.359,46.261 210.146,53.442 208.234,60.933" id="Fill-123" fill="#7F3F4D"></path>
            <path d="M208.234,60.933 C206.321,68.425 200.433,73.391 195.081,72.025 C189.73,70.658 186.943,63.478 188.855,55.986 C190.768,48.494 196.656,43.529 202.008,44.895 C207.359,46.261 210.146,53.442 208.234,60.933" id="Fill-124" fill="#7F3F4D"></path>
            <path d="M193.947,56.254 C192.581,61.605 188.437,65.168 184.691,64.211 C180.945,63.255 179.016,58.142 180.382,52.791 C181.749,47.439 185.893,43.877 189.639,44.833 C193.384,45.789 195.313,50.903 193.947,56.254" id="Fill-125" fill="#7F3F4D"></path>
            <path d="M160.694,61.181 C160.391,61.104 160.102,60.954 159.854,60.732 C154.385,55.825 155.822,48.019 155.887,47.689 C156.096,46.605 157.146,45.896 158.23,46.106 C159.297,46.305 160.021,47.361 159.815,48.443 C159.8,48.526 158.769,54.384 162.525,57.754 C163.348,58.492 163.416,59.757 162.679,60.579 C162.164,61.153 161.392,61.359 160.694,61.181" id="Fill-126" fill="#7F3F4D"></path>
            <path d="M163.129,59.737 C163.206,59.435 163.214,59.11 163.137,58.785 C161.452,51.634 153.913,49.153 153.593,49.051 C152.541,48.715 151.416,49.297 151.08,50.349 C150.743,51.38 151.323,52.522 152.371,52.86 C152.451,52.886 158.086,54.79 159.243,59.702 C159.497,60.778 160.574,61.444 161.649,61.191 C162.399,61.014 162.951,60.436 163.129,59.737" id="Fill-127" fill="#7F3F4D"></path>
            <path d="M207.5,180 C198.542,180 190.552,183.699 185.329,189.482 C181.731,193.466 176.496,195.373 171.138,195.036 C170.762,195.012 170.383,195 170,195 C160.611,195 153,202.163 153,211 C153,219.837 160.611,227 170,227 C175.844,227 180.997,224.223 184.057,219.996 C189.201,226.643 197.78,231 207.5,231 C223.24,231 236,219.583 236,205.5 C236,191.417 223.24,180 207.5,180" id="Fill-128" fill="#FCE6C4"></path>
            <path d="M249.756,227.926 L145.128,250.328 C133.247,252.872 121.553,245.302 119.009,233.421 L245.15,206.413 C251.091,205.142 256.938,208.926 258.21,214.867 C259.482,220.807 255.697,226.654 249.756,227.926" id="Fill-129" fill="#D29D75"></path>
            <path d="M171.98,198.23 C171.87,199.88 170.45,201.14 168.79,201.03 C166.54,200.89 164.35,201.38 162.44,202.44 C161.84,202.78 161.18,202.88 160.56,202.79 C159.66,202.67 158.83,202.14 158.36,201.29 C158.07,200.77 157.95,200.21 157.99,199.67 C160.83,197.01 164.66,195.28 168.93,195.03 C169.01,195.03 169.09,195.04 169.17,195.04 C170.82,195.15 172.08,196.57 171.98,198.23" id="Fill-130" fill="#768692"></path>
            <path d="M228.78,188.55 C228.75,191.47 228.25,193.63 228.2,193.81 C227.85,195.31 226.44,196.27 224.95,196.1 C224.83,196.09 224.72,196.07 224.6,196.04 C222.99,195.66 221.99,194.05 222.36,192.44 C222.72,190.89 223.19,186.98 222.22,183.66 C224.68,184.99 226.89,186.64 228.78,188.55" id="Fill-131" fill="#768692"></path>
            <path d="M182.11,220.88 C179.23,224.1 179.19,230.07 179.42,232.09 C179.61,233.74 178.43,235.22 176.78,235.41 C176.67,235.43 176.55,235.43 176.44,235.43 C174.94,235.43 173.64,234.31 173.46,232.79 C173.43,232.48 172.8,226.76 174.89,221.45 L183.74,219.56 C183.13,219.9 182.59,220.35 182.11,220.88" id="Fill-132" fill="#B46954"></path>
            <path d="M181.777,220.922 C178.897,224.142 178.857,230.112 179.087,232.132 C179.277,233.782 178.097,235.262 176.447,235.452 C176.337,235.472 176.217,235.472 176.107,235.472 C174.607,235.472 173.307,234.352 173.127,232.832 C173.097,232.522 172.467,226.802 174.557,221.492 L183.407,219.602 C182.797,219.942 182.257,220.392 181.777,220.922" id="Fill-133" fill="#B46954"></path>
            <path d="M164.027,224.755 C161.147,227.975 161.107,233.945 161.337,235.965 C161.527,237.615 160.347,239.095 158.697,239.285 C158.587,239.305 158.467,239.305 158.357,239.305 C156.857,239.305 155.557,238.185 155.377,236.665 C155.347,236.355 154.717,230.635 156.807,225.325 L165.657,223.435 C165.047,223.775 164.507,224.225 164.027,224.755" id="Fill-134" fill="#B46954"></path>
            <path d="M164.027,224.755 C161.147,227.975 161.107,233.945 161.337,235.965 C161.527,237.615 160.347,239.095 158.697,239.285 C158.587,239.305 158.467,239.305 158.357,239.305 C156.857,239.305 155.557,238.185 155.377,236.665 C155.347,236.355 154.717,230.635 156.807,225.325 L165.657,223.435 C165.047,223.775 164.507,224.225 164.027,224.755" id="Fill-135" fill="#B46954"></path>
            <path d="M258.46,217.18 C258.46,222.26 254.92,226.82 249.76,227.93 L145.13,250.33 C133.25,252.87 121.55,245.3 119.01,233.42 L123.47,232.47 C128.53,238.66 136.78,241.86 145.13,240.08 L249.76,217.68 C253.07,216.97 255.72,214.83 257.19,212.05 C257.65,212.92 258,213.86 258.21,214.87 C258.38,215.65 258.46,216.42 258.46,217.18" id="Fill-136" fill="#B46954"></path>
            <path d="M160.063,238.913 C158.562,238.913 157.268,237.793 157.088,236.267 C157.041,235.863 155.983,226.298 161.239,220.388 C163.877,217.422 167.521,215.917 172.067,215.917 C173.725,215.917 175.067,217.259 175.067,218.917 C175.067,220.574 173.725,221.917 172.067,221.917 C169.276,221.917 167.205,222.716 165.735,224.362 C162.858,227.581 162.82,233.547 163.048,235.574 C163.232,237.217 162.053,238.704 160.41,238.893 C160.293,238.907 160.177,238.913 160.063,238.913" id="Fill-137" fill="#FCE6C4"></path>
            <path d="M176,220 C176,222.209 174.209,224 172,224 C169.791,224 168,222.209 168,220 C168,217.791 169.791,216 172,216 C174.209,216 176,217.791 176,220" id="Fill-138" fill="#FCE6C4"></path>
            <path d="M170,221 C170,223.209 168.209,225 166,225 C163.791,225 162,223.209 162,221 C162,218.791 163.791,217 166,217 C168.209,217 170,218.791 170,221" id="Fill-139" fill="#FCE6C4"></path>
            <path d="M333.598,313.82 L315.99,327.009 L238.65,223.765 C235.007,218.902 235.996,212.008 240.859,208.366 C245.721,204.724 252.615,205.713 256.257,210.575 L333.598,313.82 Z" id="Fill-140" fill="#D29D75"></path>
            <polyline id="Fill-141" fill="#B46954" points="330.953 310.29 333.598 313.82 315.99 327.009 313.346 323.479 330.953 310.29"></polyline>
            <path d="M256.056,244.454 L203.857,362.421 L183.739,353.519 L235.938,235.552 C238.396,229.996 244.893,227.485 250.448,229.944 C256.004,232.402 258.515,238.898 256.056,244.454" id="Fill-142" fill="#B46954"></path>
            <path d="M94,175 L88,175 C86.895,175 86,174.105 86,173 C86,171.895 86.895,171 88,171 L94,171 C95.105,171 96,171.895 96,173 C96,174.105 95.105,175 94,175" id="Fill-143" fill="#409BA4"></path>
            <path d="M315.99,327.009 L333.598,313.82 L353.968,307.44 C354.833,307.17 355.777,307.402 356.417,308.042 C357.455,309.08 357.345,310.794 356.183,311.691 L326.608,334.506 C324.833,335.875 322.28,335.519 320.948,333.717 L315.99,327.009" id="Fill-144" fill="#FCE6C4"></path>
            <path d="M183.729,353.494 L204.004,362.035 L207.182,364.926 C210.831,368.245 214.769,370.33 219.414,371.993 C220.642,372.432 221.331,373.738 221,375 C220.711,376.105 219.714,376.876 218.572,376.879 C212.459,376.894 206.733,376.203 201.067,373.91 L182.618,366.444 C180.54,365.604 179.559,363.22 180.442,361.16 L183.729,353.494" id="Fill-145" fill="#FCE6C4"></path>
            <path d="M146,170 L130,170 C128.343,170 127,168.657 127,167 C127,165.343 128.343,164 130,164 L146,164 C147.657,164 149,165.343 149,167 C149,168.657 147.657,170 146,170" id="Fill-146" fill="#F5BF8B"></path>
            <path d="M150.144,179.061 L136.069,174.876 C134.481,174.404 133.577,172.734 134.049,171.146 C134.521,169.558 136.191,168.653 137.779,169.125 L151.854,173.31 C153.442,173.782 154.347,175.452 153.875,177.04 C153.403,178.628 151.732,179.533 150.144,179.061" id="Fill-147" fill="#F5BF8B"></path>
            <path d="M143.221,182.875 L129.146,178.69 C127.558,178.218 126.653,176.548 127.125,174.96 C127.597,173.372 129.268,172.467 130.856,172.939 L144.931,177.124 C146.519,177.596 147.423,179.266 146.951,180.854 C146.479,182.442 144.809,183.347 143.221,182.875" id="Fill-148" fill="#F5BF8B"></path>
            <polyline id="Fill-149" fill="#FCE6C4" points="205.22 165.89 202.27 170.41 196.019 171.698 198.969 167.188 205.22 165.89"></polyline>
            <polyline id="Fill-150" fill="#FCE6C4" points="211.33 156.55 208.29 161.19 197.22 163.51 200.25 158.87 211.33 156.55"></polyline>
            <path d="M168,104 L168,104 C165.791,104 164,102.209 164,100 L172,100 C172,102.209 170.209,104 168,104" id="Fill-151" fill="#FFFFFF"></path>
            <path d="M177.938,235.1 C176.437,235.1 175.143,233.98 174.963,232.455 C174.916,232.05 173.858,222.485 179.114,216.576 C181.752,213.609 185.396,212.104 189.942,212.104 C191.6,212.104 192.942,213.447 192.942,215.104 C192.942,216.761 191.6,218.104 189.942,218.104 C187.151,218.104 185.08,218.904 183.61,220.549 C180.733,223.768 180.695,229.734 180.923,231.761 C181.107,233.405 179.928,234.891 178.285,235.081 C178.168,235.094 178.052,235.1 177.938,235.1" id="Fill-152" fill="#FCE6C4"></path>
            <path d="M185.167,219.25 C185.167,219.25 189.072,214.564 186.468,207.208 C186.468,207.208 188.092,207.495 189.983,208.73 C195.272,212.183 201.677,213.502 207.954,212.797 L224.741,210.821 L185.167,219.25" id="Fill-153" fill="#F7C797"></path>
            <path d="M201.4,199.15 C201.29,199.2 201.19,199.25 201.08,199.29 C199.52,199.85 197.8,199.04 197.24,197.49 C196.54,195.57 193.86,190.24 189.85,188.64 C188.81,188.22 187.72,188.07 186.58,188.19 C188.47,186.36 190.65,184.78 193.07,183.51 C199.74,186.83 202.76,195.1 202.89,195.46 C203.4,196.91 202.74,198.49 201.4,199.15" id="Fill-154" fill="#768692"></path>
            <path d="M215.72,192.77 C215.81,194.3 214.72,195.63 213.24,195.88 C213.13,195.9 213.02,195.92 212.9,195.92 C211.25,196.02 209.83,194.76 209.73,193.1 C209.61,191.07 208.55,185.2 205.17,182.52 C203.6,181.27 201.65,180.8 199.24,181.09 C201.85,180.38 204.62,180 207.5,180 C208.78,180 210.04,180.08 211.27,180.23 C215.27,185.35 215.7,192.42 215.72,192.77" id="Fill-155" fill="#768692"></path>
            <path d="M160.938,217.496 C159.6,217.496 158.378,216.593 158.031,215.237 C157.895,214.703 158.217,214.158 158.753,214.022 C159.29,213.883 159.833,214.209 159.969,214.743 C160.106,215.276 160.652,215.598 161.185,215.465 C161.719,215.328 162.044,214.782 161.907,214.248 C161.771,213.713 162.094,213.169 162.629,213.032 C163.168,212.894 163.709,213.22 163.845,213.754 C164.254,215.356 163.283,216.993 161.68,217.402 C161.432,217.466 161.183,217.496 160.938,217.496" id="Fill-156" fill="#442C39"></path>
            <path d="M174,214.496 C172.662,214.496 171.439,213.593 171.093,212.237 C170.956,211.703 171.279,211.158 171.814,211.022 C172.352,210.882 172.894,211.208 173.031,211.743 C173.167,212.277 173.713,212.599 174.247,212.465 C174.781,212.328 175.105,211.782 174.969,211.248 C174.832,210.713 175.156,210.169 175.691,210.032 C176.23,209.893 176.77,210.22 176.907,210.754 C177.315,212.356 176.345,213.993 174.742,214.402 C174.494,214.466 174.245,214.496 174,214.496" id="Fill-157" fill="#442C39"></path>
            <path d="M168.163,219.413 L165.287,217.576 C166.302,215.988 168.412,215.523 170,216.537 L168.163,219.413" id="Fill-158" fill="#442C39"></path>
            <path d="M178.985,198.625 C178.247,198.625 177.522,198.22 177.096,197.567 C176.85,197.191 176.502,196.414 176.931,195.434 L177.946,193.115 C178.318,192.264 179.515,192.169 179.979,192.974 C180.415,193.73 180.802,194.584 181.132,195.524 C181.536,196.676 180.988,197.998 179.855,198.451 C179.564,198.567 179.272,198.625 178.986,198.625 L178.985,198.625" id="Fill-159" fill="#F7C797"></path>
            <path d="M208.23,60.93 C207.64,63.25 206.67,65.32 205.46,67.04 C203.65,67.95 201.71,68.25 199.83,67.77 C194.48,66.41 191.69,59.23 193.6,51.74 C194.19,49.42 195.16,47.35 196.38,45.63 C198.19,44.71 200.13,44.41 202.01,44.89 C207.36,46.26 210.15,53.44 208.23,60.93" id="Fill-160" fill="#7F3F4D"></path>
            <path d="M208.23,60.93 C207.945,62.05 207.572,63.112 207.126,64.104 C205.881,66.872 202.833,68.512 199.886,67.784 C199.868,67.779 199.849,67.775 199.83,67.77 C194.48,66.41 191.69,59.23 193.6,51.74 C194.19,49.42 195.16,47.35 196.38,45.63 C198.19,44.71 200.13,44.41 202.01,44.89 C207.36,46.26 210.15,53.44 208.23,60.93" id="Fill-161" fill="#A94958"></path>
            <path d="M113,357 L148,357 C154.627,357 160,351.627 160,345 L160,241 C160,234.373 154.627,229 148,229 L113,229 C106.373,229 101,234.373 101,241 L101,345 C101,351.627 106.373,357 113,357" id="Fill-162" fill="#442C39"></path>
            <path d="M91,357 L143,357 C149.627,357 155,351.627 155,345 L155,241 C155,234.373 149.627,229 143,229 L94,229 C87.373,229 82,234.373 82,241 L91,357" id="Fill-163" fill="#FCDFCE"></path>
            <path d="M88,357 L123,357 C129.627,357 135,351.627 135,345 L135,241 C135,234.373 129.627,229 123,229 L88,229 C81.373,229 76,234.373 76,241 L76,345 C76,351.627 81.373,357 88,357" id="Fill-164" fill="#442C39"></path>
            <path d="M145,348 L145,348 C141.686,348 139,345.314 139,342 L139,244 C139,240.686 141.686,238 145,238 C148.314,238 151,240.686 151,244 L151,342 C151,345.314 148.314,348 145,348" id="Fill-165" fill="#C8AD9D"></path>
            <path d="M139,249 L140,249 C141.654,249 143,247.654 143,246 L143,238 L139,238 L139,249 Z M140,253 L136,253 L136,234 L147,234 L147,246 C147,249.859 143.86,253 140,253 L140,253 Z" id="Fill-166" fill="#FCDFCE"></path>
            <path d="M151,294 L151,297 L150,297 C148.35,297 147,295.65 147,294 L147,269 C147,267.895 146.105,267 145,267 C143.895,267 143,267.895 143,269 L143,294 C143,297.866 146.134,301 150,301 L154,301 L154,294 L151,294" id="Fill-167" fill="#FCDFCE"></path>
            <path d="M139,317 L139,314 L140,314 C141.65,314 143,315.35 143,317 L143,342 C143,343.105 143.895,344 145,344 C146.105,344 147,343.105 147,342 L147,317 C147,313.134 143.866,310 140,310 L136,310 L136,317 L139,317" id="Fill-168" fill="#FCDFCE"></path>
            <path d="M141,306 L138,306 C136.895,306 136,305.105 136,304 C136,302.895 136.895,302 138,302 L141,302 C142.105,302 143,302.895 143,304 C143,305.105 142.105,306 141,306" id="Fill-169" fill="#FCDFCE"></path>
            <path d="M139,298 L138,298 C136.895,298 136,297.105 136,296 C136,294.895 136.895,294 138,294 L139,294 C140.105,294 141,294.895 141,296 C141,297.105 140.105,298 139,298" id="Fill-170" fill="#FCDFCE"></path>
            <path d="M152,264 L149,264 C147.895,264 147,263.105 147,262 C147,260.895 147.895,260 149,260 L152,260 C153.105,260 154,260.895 154,262 C154,263.105 153.105,264 152,264" id="Fill-171" fill="#FCDFCE"></path>
            <path d="M152,256 L151,256 C149.895,256 149,255.105 149,254 C149,252.895 149.895,252 151,252 L152,252 C153.105,252 154,252.895 154,254 C154,255.105 153.105,256 152,256" id="Fill-172" fill="#FCDFCE"></path>
            <path d="M193.95,56.25 C193.53,57.91 192.84,59.39 191.98,60.62 C190.92,61.02 189.82,61.11 188.75,60.84 C185,59.89 183.07,54.78 184.44,49.42 C184.86,47.77 185.55,46.29 186.41,45.06 C187.47,44.65 188.57,44.56 189.64,44.83 C193.38,45.79 195.31,50.9 193.95,56.25" id="Fill-173" fill="#7F3F4D"></path>
            <path d="M193.95,56.25 C193.728,57.128 193.43,57.956 193.071,58.724 C192.318,60.334 190.509,61.272 188.782,60.848 C188.771,60.845 188.761,60.843 188.75,60.84 C185,59.89 183.07,54.78 184.44,49.42 C184.86,47.77 185.55,46.29 186.41,45.06 C187.47,44.65 188.57,44.56 189.64,44.83 C193.38,45.79 195.31,50.9 193.95,56.25" id="Fill-174" fill="#A94958"></path>
            <path d="M154.383,83.131 C156.637,86.931 156.155,91.382 153.305,93.073 C150.455,94.763 146.317,93.054 144.063,89.254 C141.808,85.454 142.291,81.003 145.141,79.312 C147.991,77.621 152.129,79.331 154.383,83.131" id="Fill-175" fill="#F5BF8B"></path>
            <path d="M119,175 L96,175 L96,186 L108,186 C114.075,186 119,181.075 119,175" id="Fill-176" fill="#FCE6C4"></path>
            <path d="M281.59,236.799 C281.083,236.799 280.573,236.766 280.063,236.696 C277.063,236.293 274.403,234.741 272.577,232.326 L256.418,210.965 C253.639,207.291 248.928,205.534 244.425,206.497 L227.27,210.156 C225.644,210.501 224.055,209.468 223.71,207.849 C223.364,206.229 224.397,204.635 226.018,204.289 L243.173,200.63 C249.946,199.185 257.024,201.819 261.203,207.346 L277.362,228.707 C278.217,229.836 279.459,230.562 280.862,230.75 C282.271,230.94 283.657,230.566 284.778,229.703 C285.92,228.825 286.639,227.555 286.802,226.125 C286.965,224.694 286.552,223.294 285.638,222.182 L282.432,218.279 C281.38,216.999 281.565,215.108 282.846,214.057 C284.125,213.006 286.017,213.191 287.068,214.471 L290.274,218.373 C292.229,220.752 293.112,223.747 292.763,226.806 C292.414,229.864 290.878,232.582 288.438,234.459 C286.446,235.991 284.06,236.799 281.59,236.799" id="Fill-177" fill="#FCE6C4"></path>
            <polyline id="Fill-178" fill="#768692" points="242.93 206.82 237.07 208.07 235.85 202.19 241.71 200.94 242.93 206.82"></polyline>
            <path d="M264.23,211.35 L259.54,215.08 L256.42,210.96 C256.25,210.74 256.07,210.52 255.89,210.31 L260.59,206.59 C260.8,206.84 261,207.09 261.2,207.35 L264.23,211.35" id="Fill-179" fill="#768692"></path>
            <polyline id="Fill-180" fill="#768692" points="271.5 220.97 266.81 224.7 263.19 219.91 267.88 216.18 271.5 220.97"></polyline>
            <path d="M279.1,230.18 L274.21,234.07 C273.61,233.56 273.07,232.98 272.58,232.33 L270.4,229.44 L275.09,225.71 L277.36,228.71 C277.84,229.33 278.43,229.83 279.1,230.18" id="Fill-181" fill="#768692"></path>
            <path d="M254.74,202.06 L253.01,207.92 C251.27,206.89 249.28,206.3 247.24,206.25 L248.99,200.37 C250.99,200.6 252.94,201.18 254.74,202.06" id="Fill-182" fill="#768692"></path>
            <path d="M292.76,226.81 C292.41,229.86 290.88,232.58 288.44,234.46 C288.059,234.754 287.663,235.021 287.254,235.26 C285.517,236.278 283.288,235.35 282.804,233.397 C282.474,232.066 283.125,230.746 284.296,230.032 C284.462,229.931 284.623,229.821 284.78,229.7 C285.92,228.83 286.64,227.55 286.8,226.12 C286.96,224.69 286.55,223.29 285.64,222.18 L282.43,218.28 C281.38,217 281.57,215.11 282.85,214.06 C284.12,213.01 286.02,213.19 287.07,214.47 L290.27,218.37 C292.23,220.75 293.11,223.75 292.76,226.81" id="Fill-183" fill="#768692"></path>
            <polyline id="Fill-184" fill="#904D45" points="205.81 358.01 204.03 362.04 183.75 353.51 185.53 349.47 205.81 358.01"></polyline>
            <path d="M167.524,209.948 L165.559,210.32 C163.931,210.629 162.361,209.559 162.053,207.931 C161.745,206.303 162.814,204.734 164.442,204.425 L166.407,204.053 C168.035,203.745 169.605,204.814 169.913,206.442 C170.222,208.07 169.152,209.64 167.524,209.948" id="Fill-185" fill="#768692"></path>
        </g>
    </g>
</svg>